# xmcd
#
# Track frame offsets:
#	183
#	12730
#	22733
#	35598
#	45743
#	55948
#	67538
#	78868
#	88823
#	97258
#	107080
#	114850
#	125128
#	132128
#	142723
#	151373
#	162360
#	170883
#	179033
#	188908
#
# Disc length: 2655 seconds
#
# Revision: 3
# Processed by: cddbd v1.4PL0 Copyright (c) Steve Scherf et al.
# Submitted via: MusicWizard 6.0.0
#
DISCID=0e0a5d14
DTITLE=Johnny Cash - At His Mighty Best [CD 1/3)
DYEAR=1992
DGENRE=Country
TTITLE0=I Walk The Line
TTITLE1=Ballad Of A Teenage Queen
TTITLE2=Folsom Prison Blues
TTITLE3=Hey Porter
TTITLE4=Get Rythm
TTITLE5=Big River
TTITLE6=Cry Cry Cry
TTITLE7=Rock Island Line
TTITLE8=The Wreck Of The Old 97
TTITLE9=Born To Lose
TTITLE10=Hey Good Lookin'
TTITLE11=I Was There When It Happened
TTITLE12=You're My Baby
TTITLE13=Cold Cold Heart
TTITLE14=I Forgot To Remember To Forget
TTITLE15=I Heard That Lonesome Whisle Blow
TTITLE16=Country Boy
TTITLE17=I Can't Help It
TTITLE18=Story Of A Broken Heart
TTITLE19=You Win Again
EXTD=(c)1992 Compilatoin Fnac Music\nupc 3383006620517
EXTT0=
EXTT1=
EXTT2=
EXTT3=
EXTT4=
EXTT5=
EXTT6=
EXTT7=
EXTT8=
EXTT9=
EXTT10=
EXTT11=
EXTT12=
EXTT13=
EXTT14=
EXTT15=
EXTT16=
EXTT17=
EXTT18=
EXTT19=
PLAYORDER=
